<svg width="24" height="24" viewBox="0 0 24 24" fill="none" xmlns="http://www.w3.org/2000/svg">
<g id="22) Icons/Line/Chart-1">
<path id="Combined Shape" fill-rule="evenodd" clip-rule="evenodd" d="M21 7.75C21 8.7165 20.2165 9.5 19.25 9.5C19.0579 9.5 18.8731 9.46905 18.7002 9.41187L15.2831 12.9054C15.4213 13.1558 15.5 13.4437 15.5 13.75C15.5 14.7165 14.7165 15.5 13.75 15.5C12.7835 15.5 12 14.7165 12 13.75C12 13.4651 12.0681 13.196 12.1889 12.9583L11.27 11.4214C11.1058 11.4725 10.9311 11.5 10.75 11.5C10.6091 11.5 10.472 11.4833 10.3408 11.4519L6.47805 15.472C6.49249 15.5626 6.5 15.6554 6.5 15.75C6.5 16.7165 5.7165 17.5 4.75 17.5C3.7835 17.5 3 16.7165 3 15.75C3 14.7835 3.7835 14 4.75 14C5.09544 14 5.4175 14.1001 5.68876 14.2728L9.21914 10.5986C9.07952 10.3472 9 10.0579 9 9.75C9 8.7835 9.7835 8 10.75 8C11.7165 8 12.5 8.7835 12.5 9.75C12.5 10.0115 12.4426 10.2596 12.3398 10.4825L13.2845 12.0626C13.4327 12.0218 13.5888 12 13.75 12C13.8921 12 14.0302 12.0169 14.1625 12.0489L17.6572 8.47597C17.5563 8.25482 17.5 8.00898 17.5 7.75C17.5 6.7835 18.2835 6 19.25 6C20.2165 6 21 6.7835 21 7.75Z" fill="#FF328C"/>
</g>
</svg>
