<svg width="24" height="24" viewBox="0 0 24 24" fill="none" xmlns="http://www.w3.org/2000/svg">
<g id="22) Icons/Line/Crow">
<path id="Shape" fill-rule="evenodd" clip-rule="evenodd" d="M5.6707 9.60694L6.62738 17.5477H17.3725L18.3292 9.60694L15.3461 11.548L12 6.97529L8.65381 11.548L5.6707 9.60694ZM5.15665 7.52646L8.28036 9.55974L11.3944 5.30436C11.534 5.11337 11.7596 5 12 5C12.2403 5 12.4659 5.11337 12.6055 5.30436L15.7195 9.55974L18.844 7.52646C19.0854 7.36965 19.3982 7.3641 19.6454 7.51224C19.8925 7.66038 20.0289 7.93519 19.9948 8.21632L18.7726 18.3588C18.7285 18.7244 18.411 19 18.0339 19H5.96604C5.58889 19 5.27145 18.7244 5.22733 18.3588L4.00507 8.2156C3.97135 7.9346 4.10789 7.66006 4.35494 7.51212C4.60199 7.36418 4.91458 7.36978 5.15591 7.52646H5.15665ZM12 14.643C11.1782 14.643 10.5121 13.9927 10.5121 13.1906C10.5121 12.3885 11.1782 11.7383 12 11.7383C12.8217 11.7383 13.4878 12.3885 13.4878 13.1906C13.4878 13.9927 12.8217 14.643 12 14.643Z" fill="#FF328C"/>
</g>
</svg>
